<svg version="1.1" viewBox="0.0 0.0 1024.0 768.0" fill="none" stroke="none" stroke-linecap="square" stroke-miterlimit="10" xmlns:xlink="http://www.w3.org/1999/xlink" xmlns="http://www.w3.org/2000/svg"><clipPath id="p.0"><path d="m0 0l1024.0 0l0 768.0l-1024.0 0l0 -768.0z" clip-rule="nonzero"/></clipPath><g clip-path="url(#p.0)"><path fill="#000000" fill-opacity="0.0" d="m0 0l1024.0 0l0 768.0l-1024.0 0z" fill-rule="evenodd"/><path fill="#000000" fill-opacity="0.0" d="m244.40945 270.99738l411.08658 0l0 108.28348l-411.08658 0z" fill-rule="evenodd"/><path stroke="#cc0000" stroke-width="1.0" stroke-linejoin="round" stroke-linecap="butt" d="m244.40945 270.99738l411.08658 0l0 108.28348l-411.08658 0z" fill-rule="evenodd"/><path fill="#ff9900" d="m371.7229 279.99738l274.77313 0l0 88.0l-274.77313 0l0 -88.0z" fill-rule="nonzero"/><path fill="#000000" fill-opacity="0.0" d="m371.7229 275.89612l123.26437 0l0 92.46661l-123.26437 0l0 -92.46661z" fill-rule="nonzero"/><path fill="#000000" d="m386.5354 351.56924q-2.046875 0 -4.328125 -1.609375q-2.265625 -1.609375 -3.21875 -3.671875q-0.890625 -1.90625 -1.8125 -12.09375q-0.90625 -10.1875 -0.90625 -15.1875l0 -3.875q-0.078125 -1.6875 -0.078125 -3.75q0 -3.8125 0.4375 -7.546875q0.296875 -1.828125 0.765625 -3.140625q0.484375 -1.328125 1.375 -2.578125q1.609375 -2.5 4.828125 -3.296875q1.6875 -0.4375 3.75 -0.4375q1.390625 0 2.8125 0.8125q1.4375 0.796875 1.4375 1.890625q0 0.8125 -1.171875 0.8125q-0.4375 0 -1.6875 -0.515625q-1.109375 -0.515625 -1.984375 -0.515625q-2.046875 0 -3.703125 0.84375q-1.65625 0.84375 -2.609375 2.234375q-0.796875 1.171875 -1.390625 3.234375q-0.578125 2.046875 -0.734375 4.109375q-0.21875 1.828125 -0.21875 4.390625l0.078125 4.109375q0.078125 1.765625 0.078125 3.8125q0 5.0625 1.015625 14.890625q1.03125 9.8125 1.984375 11.359375q0.875 1.390625 2.59375 2.125q1.734375 0.734375 3.640625 0.734375q3.375 0 5.140625 -2.125q0.65625 -0.875 1.390625 -0.875q0.65625 0 0.65625 1.015625q0 1.328125 -0.8125 2.328125q-0.796875 0.984375 -2.203125 1.484375q-2.34375 1.03125 -5.125 1.03125zm26.979492 -0.4375q-0.578125 0 -0.796875 -0.296875q-0.21875 -0.296875 -0.21875 -0.875l0 -0.875q0.0625 -0.296875 0.0625 -0.8125q0 -10.046875 -0.734375 -25.453125l-0.5 0l-1.40625 0l-1.390625 0q-4.109375 0 -5.125 0.234375q0 5.34375 0.578125 13.265625q0.65625 9.015625 0.65625 13.265625q0 1.109375 -0.796875 1.109375q-1.109375 0 -1.109375 -1.03125q-0.0625 -3.59375 -0.328125 -9.9375q-0.25 -6.34375 -0.46875 -10.734375q-1.390625 -17.453125 -1.390625 -33.4375q0 -0.734375 0.953125 -0.734375q0.4375 0 0.6875 0.265625q0.265625 0.25 0.1875 0.6875l0 5.421875q0 1.984375 0.359375 7.484375l0.15625 2.484375q0.140625 4.109375 0.140625 4.921875l0 3.59375q0 1.90625 0.375 1.90625l2.78125 -0.15625l1.46875 -0.140625q3.671875 -0.296875 4.171875 -0.296875l0.078125 -0.140625q0 -3.234375 -0.359375 -12.390625q-0.375 -9.3125 -0.375 -12.46875q0 -0.890625 1.03125 -0.890625q0.515625 0 0.875 0.265625q0.375 0.25 0.375 0.6875q0 14.3125 0.5 31.46875q0.515625 17.234375 0.515625 21.109375l0 1.03125q0 0.59375 -0.265625 1.03125q-0.25 0.4375 -0.6875 0.4375zm25.665741 -0.734375q-0.578125 0 -0.984375 -0.359375q-0.40625 -0.375 -0.40625 -0.890625l0 -9.609375q0 -0.875 -3.75 -1.609375q-3.734375 -0.734375 -6.140625 -0.734375q-0.15625 0 -0.484375 1.109375q-0.328125 1.09375 -0.46875 1.609375q-0.953125 3.8125 -1.90625 8.140625l-0.375 1.609375q-0.140625 0.59375 -0.734375 0.59375q-0.578125 0 -1.0625 -0.359375q-0.46875 -0.375 -0.46875 -0.890625l0.0625 -0.15625l0 -0.0625l0.8125 -3.671875q0.875 -3.4375 1.53125 -6.75q0.734375 -3.734375 1.109375 -4.828125q0.578125 -2.421875 2.34375 -12.109375l0.4375 -2.421875q1.90625 -11.28125 2.640625 -14.21875q0.375 -1.765625 1.328125 -5.203125q0.359375 -1.46875 1.015625 -2.9375q0.671875 -1.25 1.109375 -1.25q1.171875 0 1.6875 0.734375q0.359375 0.65625 1.125 7.265625q0.78125 6.59375 1.359375 13.34375l0.953125 12.171875q0 3.15625 0.4375 9.53125q0.453125 6.453125 0.453125 9.609375l0 0.296875q0 0.796875 -0.234375 1.453125q-0.28125 0.59375 -1.390625 0.59375zm-2.921875 -14.15625q1.453125 0 1.453125 -0.734375q0 -4.546875 -0.515625 -12.421875q-0.5 -7.890625 -1.09375 -13.890625q-0.140625 -2.578125 -0.578125 -5.65625l-0.296875 -2.859375q0 0.078125 -0.15625 -0.796875l-0.140625 -0.890625q-0.578125 1.609375 -1.140625 4.484375q-0.546875 2.859375 -1.125 6.734375q-1.765625 10.921875 -3.015625 16.421875l-0.65625 2.5q-1.09375 3.671875 -1.09375 5.578125l0 0.4375q3.21875 1.03125 7.40625 1.03125l0.4375 0q0.21875 0.0625 0.515625 0.0625zm24.197296 15.703125q-10.203125 0 -10.203125 -35.28125l0 -2.921875q0 -6.171875 0.734375 -10.71875q0.4375 -2.859375 1.203125 -4.6875q0.78125 -1.828125 2.09375 -2.9375q1.25 -1.25 3.234375 -1.25q1.765625 0 3.21875 0.703125q1.46875 0.703125 2.421875 1.796875q0.8125 1.03125 1.46875 2.71875q0.65625 1.6875 1.03125 3.21875l0.578125 3.453125q1.765625 12.53125 1.765625 22.21875l0 0.21875q0 3.65625 -0.140625 6.75q-0.15625 3.65625 -0.8125 7.6875q-0.296875 1.984375 -0.84375 3.453125q-0.546875 1.46875 -1.4375 2.9375q-1.53125 2.640625 -4.3125 2.640625zm0.140625 -2.0625q1.171875 0 2.125 -1.34375q0.953125 -1.359375 1.46875 -3.78125q1.171875 -5.140625 1.46875 -10.046875q0.140625 -3.96875 0.140625 -7.703125l0 -0.296875l-0.078125 -7.328125q-0.140625 -3.96875 -0.875 -10.265625q-0.578125 -4.46875 -2.421875 -9.171875q-0.734375 -1.828125 -1.9375 -2.859375q-1.203125 -1.03125 -2.609375 -1.03125q-1.234375 0 -2.1875 1.1875q-0.953125 1.171875 -1.546875 3.296875q-1.3125 4.90625 -1.46875 9.09375q-0.21875 3.59375 -0.21875 7.40625l0 3.59375q0 4.90625 0.953125 12.453125q0.59375 4.765625 1.46875 8.296875q0.875 3.515625 2.34375 5.9375q1.46875 2.5625 3.375 2.5625zm20.60971 2.125q-1.328125 0 -2.03125 -0.109375q-0.6875 -0.109375 -1.5 -0.46875q-0.875 -0.4375 -1.3125 -1.25q0 -0.875 0.8125 -0.875q0.796875 0 2.046875 0.5q1.171875 0.59375 1.984375 0.59375q1.609375 0 2.96875 -1.3125q1.359375 -1.328125 2.09375 -3.453125q1.453125 -4.1875 1.453125 -7.40625q0 -3.59375 -1.03125 -7.25q-1.015625 -3.671875 -2.703125 -6.90625q-0.359375 -0.796875 -1.25 -2.421875q-1.828125 -3.65625 -2.78125 -5.703125q-0.953125 -2.0625 -1.6875 -4.5625q-1.03125 -3.296875 -1.03125 -7.109375q0 -2.421875 0.765625 -4.65625q0.78125 -2.234375 2.46875 -3.84375q1.828125 -1.6875 4.109375 -1.6875q0.875 0 2.109375 0.703125q1.25 0.6875 1.25 1.34375q0 0.59375 -0.4375 0.59375q-0.4375 0 -1.171875 -0.375q-0.65625 -0.359375 -1.25 -0.359375q-1.6875 0 -2.96875 1.25q-1.28125 1.234375 -1.859375 3.078125q-0.515625 1.53125 -0.515625 3.375q0 2.859375 0.734375 5.90625q0.734375 3.03125 1.96875 5.671875l2.578125 5.359375l0.734375 1.53125q1.53125 3.15625 2.375 5.21875q0.84375 2.046875 1.4375 4.609375q0.796875 3.453125 0.796875 6.59375q0 4.265625 -2.1875 8.65625q-1.109375 2.125 -2.953125 3.4375q-1.828125 1.328125 -4.015625 1.328125z" fill-rule="nonzero"/><path fill="#010000" fill-opacity="0.0" d="m494.98727 304.344l15.502258 0l0 57.158783l-15.502258 0l0 -57.158783z" fill-rule="nonzero"/><path fill="#000000" fill-opacity="0.0" d="m510.48953 312.66083l136.0065 0l0 51.348267l-136.0065 0l0 -51.348267z" fill-rule="nonzero"/><path fill="#000000" d="m531.8489 333.11612l0 -0.625q0 -0.6875 0.265625 -0.96875q0.265625 -0.296875 0.65625 -0.296875q0.421875 0 0.6875 0.296875q0.265625 0.28125 0.265625 0.96875l0 4.203125q-0.015625 0.6875 -0.28125 0.984375q-0.25 0.28125 -0.671875 0.28125q-0.375 0 -0.625 -0.25q-0.25 -0.265625 -0.296875 -0.859375q-0.140625 -1.5625 -2.078125 -2.984375q-1.921875 -1.421875 -5.203125 -1.421875q-4.140625 0 -6.296875 2.59375q-2.140625 2.59375 -2.140625 5.9375q0 3.59375 2.359375 5.953125q2.375 2.34375 6.140625 2.34375q2.171875 0 4.421875 -0.796875q2.25 -0.796875 4.0625 -2.578125q0.453125 -0.4375 0.8125 -0.4375q0.375 0 0.625 0.265625q0.265625 0.25 0.265625 0.625q0 0.953125 -2.234375 2.40625q-3.609375 2.375 -8.046875 2.375q-4.484375 0 -7.375 -2.859375q-2.890625 -2.875 -2.890625 -7.28125q0 -4.5 2.953125 -7.453125q2.953125 -2.96875 7.453125 -2.96875q4.265625 0 7.171875 2.546875zm13.326294 -10.5l0 11.453125q1.765625 -1.9375 3.390625 -2.71875q1.625 -0.78125 3.640625 -0.78125q2.171875 0 3.6875 0.765625q1.515625 0.765625 2.53125 2.34375q1.015625 1.578125 1.015625 3.328125l0 11.53125l2.09375 0q0.671875 0 0.953125 0.265625q0.28125 0.25 0.28125 0.671875q0 0.390625 -0.28125 0.65625q-0.28125 0.265625 -0.953125 0.265625l-6.046875 0q-0.6875 0 -0.984375 -0.265625q-0.28125 -0.265625 -0.28125 -0.65625q0 -0.421875 0.28125 -0.671875q0.296875 -0.265625 0.984375 -0.265625l2.078125 0l0 -11.390625q0 -2.015625 -1.453125 -3.359375q-1.453125 -1.359375 -4.03125 -1.359375q-2.046875 0 -3.484375 1.0q-1.03125 0.703125 -3.421875 3.328125l0 11.78125l2.09375 0q0.671875 0 0.953125 0.265625q0.296875 0.25 0.296875 0.671875q0 0.390625 -0.296875 0.65625q-0.28125 0.265625 -0.953125 0.265625l-6.0625 0q-0.65625 0 -0.953125 -0.265625q-0.28125 -0.265625 -0.28125 -0.65625q0 -0.421875 0.28125 -0.671875q0.296875 -0.265625 0.953125 -0.265625l2.109375 0l0 -24.03125l-2.5 0q-0.671875 0 -0.96875 -0.265625q-0.28125 -0.265625 -0.28125 -0.6875q0 -0.40625 0.28125 -0.671875q0.296875 -0.265625 0.96875 -0.265625l4.359375 0zm38.670105 27.78125l0 -2.671875q-4.0625 3.40625 -8.65625 3.40625q-3.34375 0 -5.234375 -1.6875q-1.875 -1.703125 -1.875 -4.15625q0 -2.703125 2.46875 -4.71875q2.484375 -2.015625 7.25 -2.015625q1.28125 0 2.78125 0.171875q1.515625 0.15625 3.265625 0.515625l0 -3.015625q0 -1.515625 -1.421875 -2.640625q-1.421875 -1.140625 -4.25 -1.140625q-2.171875 0 -6.09375 1.265625q-0.703125 0.21875 -0.90625 0.21875q-0.34375 0 -0.609375 -0.265625q-0.25 -0.265625 -0.25 -0.65625q0 -0.375 0.21875 -0.609375q0.3125 -0.328125 2.5 -0.90625q3.453125 -0.921875 5.234375 -0.921875q3.515625 0 5.484375 1.734375q1.96875 1.734375 1.96875 3.921875l0 12.3125l2.484375 0q0.671875 0 0.953125 0.265625q0.296875 0.25 0.296875 0.671875q0 0.390625 -0.296875 0.65625q-0.28125 0.265625 -0.953125 0.265625l-4.359375 0zm0 -9.25q-1.3125 -0.375 -2.78125 -0.546875q-1.453125 -0.1875 -3.0625 -0.1875q-4.0625 0 -6.34375 1.75q-1.71875 1.3125 -1.71875 3.125q0 1.671875 1.3125 2.828125q1.328125 1.15625 3.84375 1.15625q2.40625 0 4.46875 -0.953125q2.078125 -0.96875 4.28125 -3.078125l0 -4.09375zm22.763794 -19.453125l0 4.796875l-2.734375 0l0 -4.796875l2.734375 0zm0.0625 9.53125l0 17.3125l7.3125 0q0.6875 0 0.96875 0.265625q0.296875 0.25 0.296875 0.671875q0 0.390625 -0.296875 0.65625q-0.28125 0.265625 -0.96875 0.265625l-16.46875 0q-0.65625 0 -0.953125 -0.265625q-0.28125 -0.265625 -0.28125 -0.65625q0 -0.421875 0.28125 -0.671875q0.296875 -0.265625 0.953125 -0.265625l7.296875 0l0 -15.421875l-5.421875 0q-0.65625 0 -0.953125 -0.265625q-0.296875 -0.265625 -0.296875 -0.671875q0 -0.421875 0.28125 -0.6875q0.296875 -0.265625 0.96875 -0.265625l7.28125 0zm20.216919 0l0 2.8125q1.953125 -1.96875 3.515625 -2.71875q1.578125 -0.75 3.546875 -0.75q2.125 0 3.875 0.90625q1.234375 0.65625 2.234375 2.203125q1.015625 1.53125 1.015625 3.15625l0 11.703125l1.5625 0q0.671875 0 0.953125 0.265625q0.296875 0.25 0.296875 0.671875q0 0.390625 -0.296875 0.65625q-0.28125 0.265625 -0.953125 0.265625l-4.96875 0q-0.6875 0 -0.984375 -0.265625q-0.28125 -0.265625 -0.28125 -0.65625q0 -0.421875 0.28125 -0.671875q0.296875 -0.265625 0.984375 -0.265625l1.546875 0l0 -11.390625q0 -1.984375 -1.4375 -3.34375q-1.4375 -1.359375 -3.859375 -1.359375q-1.828125 0 -3.1875 0.75q-1.34375 0.734375 -3.84375 3.6875l0 11.65625l2.09375 0q0.671875 0 0.953125 0.265625q0.296875 0.25 0.296875 0.671875q0 0.390625 -0.296875 0.65625q-0.28125 0.265625 -0.953125 0.265625l-6.0625 0q-0.65625 0 -0.953125 -0.265625q-0.28125 -0.265625 -0.28125 -0.65625q0 -0.421875 0.28125 -0.671875q0.296875 -0.265625 0.953125 -0.265625l2.109375 0l0 -15.421875l-1.578125 0q-0.65625 0 -0.953125 -0.265625q-0.28125 -0.265625 -0.28125 -0.6875q0 -0.40625 0.28125 -0.671875q0.296875 -0.265625 0.953125 -0.265625l3.4375 0z" fill-rule="nonzero"/><path fill="#000000" fill-opacity="0.0" d="m646.49603 312.66083l0 0l0 51.348267l0 0l0 -51.348267z" fill-rule="nonzero"/><path fill="#76a5af" d="m306.79276 302.8871l17.621368 -25.812286l-1.7375183 23.698364l20.002777 -3.8629456l-7.9443054 12.719208l20.807617 3.6582336l-16.52298 10.405029l18.904388 12.527863l-22.549866 -1.5487671l6.192566 22.932892l-19.529327 -16.190521l-3.6596985 23.498077l-12.853821 -21.370789l-9.691284 29.661865l-3.6454773 -26.582214l-13.980652 8.856293l4.2846375 -16.377441l-26.190613 2.8927612l16.982239 -12.514526l-17.621384 -14.063232l21.90599 -4.441498l-20.154266 -23.684998l32.86609 17.912842l4.9237366 -17.912842z" fill-rule="evenodd"/><path stroke="#000000" stroke-width="1.0" stroke-linejoin="round" stroke-linecap="butt" d="m306.79276 302.8871l17.621368 -25.812286l-1.7375183 23.698364l20.002777 -3.8629456l-7.9443054 12.719208l20.807617 3.6582336l-16.52298 10.405029l18.904388 12.527863l-22.549866 -1.5487671l6.192566 22.932892l-19.529327 -16.190521l-3.6596985 23.498077l-12.853821 -21.370789l-9.691284 29.661865l-3.6454773 -26.582214l-13.980652 8.856293l4.2846375 -16.377441l-26.190613 2.8927612l16.982239 -12.514526l-17.621384 -14.063232l21.90599 -4.441498l-20.154266 -23.684998l32.86609 17.912842l4.9237366 -17.912842z" fill-rule="evenodd"/></g></svg>