<?xml version="1.0" encoding="utf-8"?>
<!-- Generator: Adobe Illustrator 25.4.1, SVG Export Plug-In . SVG Version: 6.00 Build 0)  -->
<svg version="1.1" id="Layer_1" xmlns="http://www.w3.org/2000/svg" xmlns:xlink="http://www.w3.org/1999/xlink" x="0px" y="0px"
	 viewBox="0 0 1000 600" style="enable-background:new 0 0 1000 600;" xml:space="preserve">
<style type="text/css">
	.st0{fill:#6309FF;}
</style>
<g>
	<path class="st0" d="M273,224.2c-3.6-1.2-7.2-2.4-10.7-3.6c-4.4-1.6-8.7,2.9-8.5,8.8c0.4,11.2,0.8,22.3,1.2,33.5
		c0.1,3.7-1.7,7.1-4.5,8.5c-5.6,2.7-11.3,5.3-17,7.9c-5.7-2.5-11.4-5.2-17-7.9c-2.9-1.4-4.6-4.8-4.5-8.5c0.4-11.2,0.8-22.3,1.2-33.5
		c0.2-6-4.1-10.4-8.5-8.8c-3.6,1.2-7.1,2.5-10.7,3.6c-2.9,1-5.1,4.2-5.4,8.1c-1,13.2-2.1,26.4-3.1,39.5c-0.3,3.7,1.4,7.1,4.2,8.6
		l0,0c6.3,3.3,5.7,14.1-1.2,16.6l0,0c-3.1,1.1-5.4,4.2-5.7,7.9c-1.6,20.1-3.2,40.3-4.8,60.4c-0.3,3.9,1.8,7.5,5.4,8.9
		c4.3,1.7,8.7,3.4,13.1,5.1c5.5,2.1,11.4-2,11.6-8c0.6-18.1,1.3-36.2,1.9-54.4c0.1-3.7,2.3-6.9,5.4-8.1c6.1-2.4,12.1-4.8,18.1-7.4
		c6,2.5,12,5,18.1,7.4c3.1,1.2,5.3,4.4,5.4,8.1c0.6,18.1,1.3,36.2,1.9,54.4c0.2,6,6.1,10,11.6,8c4.4-1.7,8.8-3.4,13.1-5.1
		c3.5-1.4,5.7-5,5.4-8.9c-1.6-20.1-3.2-40.3-4.8-60.4c-0.3-3.7-2.5-6.8-5.7-7.9l0,0c-6.9-2.4-7.5-13.3-1.2-16.6l0,0
		c2.9-1.5,4.5-5,4.2-8.6c-1-13.2-2.1-26.4-3.1-39.5C278.1,228.4,275.9,225.1,273,224.2z"/>
	<g>
		<g>
			<path class="st0" d="M363.8,255h19.8v30.4h31.8V255h19.8v77.4h-19.8v-31.5h-31.8v31.5h-19.8V255z"/>
			<path class="st0" d="M461.2,255h19.7v46.3c0,4.6,1.3,8.2,3.8,10.8c2.5,2.6,6.1,3.9,10.7,3.9c4.5,0,8.1-1.3,10.7-3.8
				s3.9-6.2,3.9-10.9V255h19.8v47.5c0,9.7-3.1,17.3-9.4,22.8c-6.3,5.5-14.6,8.2-25.1,8.2c-5.8,0-10.9-0.7-15.2-2.2
				c-4.4-1.5-8-3.6-10.7-6.4s-4.8-6-6.1-9.7c-1.3-3.7-2-8-2-12.7L461.2,255L461.2,255z"/>
			<path class="st0" d="M555.7,255H580l16.9,38.6h0.8l16.6-38.6h24.4v77.4h-19.2v-29.2l1.1-20.9h-0.8l-22.5,49l-22.5-49h-0.9
				l1.1,21.1v29h-19.3L555.7,255L555.7,255z"/>
			<path class="st0" d="M684.4,255h23.1l28,77.4h-21.8l-3.7-11.7h-27.9l-3.8,11.7h-20.5L684.4,255z M705.2,305.5l-2.3-7.2l-6.2-22.5
				H696l-6.7,22.5l-2.3,7.2H705.2z"/>
			<path class="st0" d="M752.6,255h22.7l27.6,49.2h0.8l-1.1-21.8V255h19.7v77.4h-22.6l-27.4-48.7h-0.8l1,21.1v27.6h-19.8V255H752.6z
				"/>
		</g>
	</g>
</g>
</svg>
