<?xml version="1.0" encoding="utf-8"?>
<!-- Generator: Adobe Illustrator 26.1.0, SVG Export Plug-In . SVG Version: 6.00 Build 0)  -->
<svg version="1.1" id="Layer_1" xmlns="http://www.w3.org/2000/svg" xmlns:xlink="http://www.w3.org/1999/xlink" x="0px" y="0px"
	 viewBox="0 0 124.32 124.32" style="enable-background:new 0 0 124.32 124.32;" xml:space="preserve">
<style type="text/css">
	.st0{fill:#FFFFFF;}
	.st1{stroke:#FFFFFF;stroke-width:1.1814;stroke-miterlimit:10;}
	.st2{stroke:#FFFFFF;stroke-width:0.8913;stroke-miterlimit:10;}
	.st3{stroke:#FFFFFF;stroke-width:0.4457;stroke-miterlimit:10;}
	.st4{fill:#00BAFF;}
	.st5{fill:none;stroke:#00BAFF;stroke-width:0.4042;stroke-linecap:round;stroke-linejoin:round;stroke-miterlimit:10;}
	.st6{fill:none;stroke:#00BAFF;stroke-width:0.202;stroke-linecap:round;stroke-linejoin:round;stroke-miterlimit:10;}
	.st7{fill:none;stroke:#00BAFF;stroke-width:0.5033;stroke-linecap:round;stroke-linejoin:round;stroke-miterlimit:10;}
	.st8{fill:none;stroke:#00BAFF;stroke-width:1.281;stroke-linecap:round;stroke-linejoin:round;stroke-miterlimit:10;}
	.st9{fill:none;stroke:#00BAFF;stroke-width:2.0088;stroke-linecap:round;stroke-linejoin:round;stroke-miterlimit:10;}
	.st10{fill:#FFFFFF;stroke:#000000;stroke-width:1.195;stroke-miterlimit:10;}
	.st11{stroke:#FFFFFF;stroke-width:2.0375;stroke-miterlimit:10;}
	.st12{stroke:#FFFFFF;stroke-width:1.5372;stroke-miterlimit:10;}
	.st13{stroke:#FFFFFF;stroke-width:0.7686;stroke-miterlimit:10;}
	.st14{fill:none;stroke:#00BAFF;stroke-width:0.697;stroke-linecap:round;stroke-linejoin:round;stroke-miterlimit:10;}
	.st15{fill:none;stroke:#00BAFF;stroke-width:0.3484;stroke-linecap:round;stroke-linejoin:round;stroke-miterlimit:10;}
	.st16{stroke:#FFFFFF;stroke-width:2.6536;stroke-miterlimit:10;}
	.st17{stroke:#FFFFFF;stroke-width:2.0021;stroke-miterlimit:10;}
	.st18{stroke:#FFFFFF;stroke-width:1.0011;stroke-miterlimit:10;}
	.st19{fill:none;stroke:#00BAFF;stroke-width:0.9078;stroke-linecap:round;stroke-linejoin:round;stroke-miterlimit:10;}
	.st20{fill:none;stroke:#00BAFF;stroke-width:0.4538;stroke-linecap:round;stroke-linejoin:round;stroke-miterlimit:10;}
	.st21{stroke:#FFFFFF;stroke-width:3;stroke-miterlimit:10;}
	
		.st22{fill-rule:evenodd;clip-rule:evenodd;fill:none;stroke:#FFFFFF;stroke-width:5.8246;stroke-linecap:round;stroke-linejoin:round;stroke-miterlimit:10;}
	.st23{fill:none;stroke:#FFFFFF;stroke-width:5.8246;stroke-linecap:round;stroke-linejoin:round;stroke-miterlimit:10;}
	.st24{stroke:#00BAFF;stroke-width:3;stroke-linecap:round;stroke-linejoin:round;stroke-miterlimit:10;}
</style>
<path d="M109.937,62.155c0,26.35-21.44,47.78-47.78,47.78c-26.34,0-47.77-21.43-47.77-47.78c0-26.34,21.43-47.77,47.77-47.77
	C88.497,14.385,109.937,35.815,109.937,62.155z"/>
<path class="st0" d="M62.157-0.005c-34.27,0-62.16,27.89-62.16,62.16c0,34.28,27.89,62.17,62.16,62.17
	c34.28,0,62.16-27.89,62.16-62.17C124.317,27.885,96.437-0.005,62.157-0.005z M62.157,119.085c-31.39,0-56.93-25.53-56.93-56.93
	c0-31.39,25.54-56.92,56.93-56.92s56.93,25.53,56.93,56.92C119.087,93.555,93.547,119.085,62.157,119.085z"/>
<path d="M62.157,5.235c-31.39,0-56.93,25.53-56.93,56.92c0,31.4,25.54,56.93,56.93,56.93s56.93-25.53,56.93-56.93
	C119.087,30.765,93.547,5.235,62.157,5.235z M62.157,112.545c-27.78,0-50.39-22.6-50.39-50.39c0-27.78,22.61-50.38,50.39-50.38
	c27.79,0,50.39,22.6,50.39,50.38C112.547,89.945,89.947,112.545,62.157,112.545z"/>
<path class="st4" d="M87.287,47.115l-5.98-5.98c-0.46-0.46-1.21-0.46-1.68,0c-0.46,0.47-0.46,1.22,0,1.68l2.86,2.86l-0.41,3.22
	c-0.03,0.2,0.05,0.41,0.21,0.54l2.98,2.45v22.83c0,1.35-1.1,2.44-2.44,2.44c-1.35,0-2.45-1.09-2.45-2.44v-13.6
	c0.01-0.15-0.01-1.47-0.93-2.4c-0.38-0.39-1.07-0.85-2.17-0.85h-0.79v-21.05c0-0.86-0.7-1.57-1.56-1.57h-25.74
	c-0.87,0-1.57,0.71-1.57,1.57v44.43h-1.57c-0.86,0-1.56,0.7-1.56,1.56v1.34c0,0.86,0.7,1.56,1.56,1.56h32.01
	c0.86,0,1.56-0.7,1.56-1.56v-1.34c0-0.86-0.7-1.56-1.56-1.56h-1.57v-21.01h0.79c0.18,0,0.72,0,0.73,0.86v13.62
	c0,2.66,2.16,4.82,4.82,4.82c2.65,0,4.81-2.16,4.81-4.82v-26.76C87.637,47.645,87.517,47.345,87.287,47.115z M51.487,54.745v-14.99
	c0-0.08,0.06-0.15,0.15-0.15h20.84c0.08,0,0.14,0.07,0.14,0.15v14.99c0,0.09-0.06,0.15-0.14,0.15h-20.84
	C51.547,54.895,51.487,54.835,51.487,54.745z M59.867,74.185c-0.79,0.56-1.8,0.84-3.04,0.84c-0.84,0-1.59-0.15-2.24-0.45
	c-0.65-0.3-1.16-0.71-1.53-1.23s-0.56-1.08-0.56-1.69h2.54c0.02,0.48,0.2,0.84,0.53,1.09c0.33,0.26,0.76,0.38,1.31,0.38
	c0.52,0,0.9-0.09,1.17-0.29c0.26-0.19,0.39-0.45,0.39-0.76c0-0.33-0.16-0.59-0.49-0.78c-0.32-0.19-0.84-0.35-1.56-0.5
	c-2.38-0.5-3.57-1.52-3.57-3.04c0-0.89,0.36-1.63,1.1-2.23c0.74-0.6,1.71-0.89,2.9-0.89c1.27,0,2.29,0.3,3.05,0.89
	c0.77,0.6,1.15,1.38,1.15,2.34h-2.68c0-0.38-0.13-0.7-0.37-0.95c-0.25-0.25-0.64-0.38-1.16-0.38c-0.45,0-0.8,0.11-1.05,0.31
	c-0.24,0.2-0.37,0.46-0.37,0.78c0,0.29,0.14,0.53,0.42,0.72c0.28,0.18,0.76,0.34,1.43,0.47c0.66,0.13,1.23,0.28,1.68,0.45
	c1.42,0.52,2.12,1.42,2.12,2.7C61.037,72.875,60.647,73.615,59.867,74.185z M71.727,63.605h-6.01v3.48h5.34v2.24h-5.34v5.52h-2.78
	v-13.5h8.79V63.605z M85.267,50.345l-1.97-1.62l0.26-1.99l1.71,1.71V50.345z"/>
</svg>
